<?xml version="1.0" encoding="UTF-8"?>
<!DOCTYPE svg PUBLIC "-//W3C//DTD SVG 1.1//EN" "http://www.w3.org/Graphics/SVG/1.1/DTD/svg11.dtd">
<svg xmlns="http://www.w3.org/2000/svg" xmlns:xlink="http://www.w3.org/1999/xlink" version="1.1" width="660px" height="481px" viewBox="-0.5 -0.5 660 481"><defs><linearGradient x1="0%" y1="0%" x2="0%" y2="100%" id="mx-gradient-none-0-none-0-s-0"><stop offset="0%" style="stop-color:none;stop-opacity:0"/><stop offset="100%" style="stop-color:none;stop-opacity:0"/></linearGradient><linearGradient x1="100%" y1="0%" x2="0%" y2="0%" id="mx-gradient-ffb624-1-ff2e17-1-e-0"><stop offset="0%" style="stop-color:#FF2E17"/><stop offset="100%" style="stop-color:#FFB624"/></linearGradient><linearGradient x1="0%" y1="0%" x2="100%" y2="0%" id="mx-gradient-ffb624-1-0000ff-1-e-0"><stop offset="0%" style="stop-color:#FFB624"/><stop offset="100%" style="stop-color:#0000FF"/></linearGradient></defs><g><rect x="406" y="190" width="250" height="210" fill="#e6e6e6" stroke="#000000" stroke-width="5" pointer-events="all"/><rect x="23" y="83" width="350" height="394" fill="#ebf9ff" stroke="#808080" stroke-width="7" pointer-events="all"/><rect x="136" y="191" width="220" height="210" fill="#e6e6e6" stroke="#000000" stroke-width="5" pointer-events="all"/><path d="M 537.5 396 L 584.5 396 L 584.5 403 L 537.5 403 L 537.5 396 Z" fill="#e6e6e6" stroke="none" pointer-events="all"/><path d="M 537.5 396 L 537.5 403 L 537.5 403 L 584.5 403 L 584.5 396 L 537.5 396" fill="url(#mx-gradient-none-0-none-0-s-0)" stroke="none" pointer-events="all"/><path d="M 537.5 396 L 584.5 396 L 584.5 403 L 537.5 403 L 537.5 396 Z" fill="none" stroke="none" pointer-events="all"/><path d="M 536.5 187 L 583.5 187 L 583.5 194 L 536.5 194 L 536.5 187 Z" fill="#e6e6e6" stroke="none" pointer-events="all"/><path d="M 536.5 187 L 536.5 194 L 536.5 194 L 583.5 194 L 583.5 187 L 536.5 187" fill="url(#mx-gradient-none-0-none-0-s-0)" stroke="none" pointer-events="all"/><path d="M 536.5 187 L 583.5 187 L 583.5 194 L 536.5 194 L 536.5 187 Z" fill="none" stroke="none" pointer-events="all"/><path d="M 396 265 L 421 265 L 436.43 288.14 L 691.03 288.14 L 691.03 268.14 L 724 295 L 691.03 321.86 L 691.03 301.86 L 436.43 301.86 L 421 325 L 396 325 L 416 295 Z" fill="url(#mx-gradient-ffb624-1-ff2e17-1-e-0)" stroke="none" transform="rotate(90,560,295)" pointer-events="all"/><path d="M 226.5 188 L 273.5 188 L 273.5 195 L 226.5 195 L 226.5 188 Z" fill="#e6e6e6" stroke="none" pointer-events="all"/><path d="M 226.5 188 L 226.5 195 L 226.5 195 L 273.5 195 L 273.5 188 L 226.5 188" fill="url(#mx-gradient-none-0-none-0-s-0)" stroke="none" pointer-events="all"/><path d="M 226.5 188 L 273.5 188 L 273.5 195 L 226.5 195 L 226.5 188 Z" fill="none" stroke="none" pointer-events="all"/><path d="M 226.5 397 L 273.5 397 L 273.5 404 L 226.5 404 L 226.5 397 Z" fill="#e6e6e6" stroke="none" pointer-events="all"/><path d="M 226.5 397 L 226.5 404 L 226.5 404 L 273.5 404 L 273.5 397 L 226.5 397" fill="url(#mx-gradient-none-0-none-0-s-0)" stroke="none" pointer-events="all"/><path d="M 226.5 397 L 273.5 397 L 273.5 404 L 226.5 404 L 226.5 397 Z" fill="none" stroke="none" pointer-events="all"/><path d="M 86 265 L 111 265 L 126.43 288.14 L 381.03 288.14 L 381.03 268.14 L 414 295 L 381.03 321.86 L 381.03 301.86 L 126.43 301.86 L 111 325 L 86 325 L 106 295 Z" fill="url(#mx-gradient-ffb624-1-0000ff-1-e-0)" stroke="none" transform="rotate(90,250,295)" pointer-events="all"/><path d="M 436 381 L 176 381 Q 166 381 161 376 L 158.5 373.5 Q 156 371 161 366 L 163.5 363.5 Q 166 361 176 361 L 306 361 Q 316 361 321 356 L 323.5 353.5 Q 326 351 321 346 L 318.5 343.5 Q 316 341 306 341 L 176 341 Q 166 341 161 336 L 158.5 333.5 Q 156 331 161 326 L 163.5 323.5 Q 166 321 176 321 L 416 321" fill="none" stroke="#0000ff" stroke-width="5" stroke-miterlimit="10" pointer-events="stroke"/><path d="M 446 321 L 616 321 Q 626 321 631 326 L 633.5 328.5 Q 636 331 631 336 L 628.5 338.5 Q 626 341 616 341 L 486 341 Q 476 341 471 346 L 468.5 348.5 Q 466 351 471 356 L 473.5 358.5 Q 476 361 486 361 L 616 361 Q 626 361 631 366 L 633.5 368.5 Q 636 371 631 376 L 628.5 378.5 Q 626 381 616 381 L 436 381" fill="none" stroke="#ff0000" stroke-width="5" stroke-miterlimit="10" pointer-events="stroke"/><path d="M 416.5 291 C 416.5 275 461.5 275 461.5 291 L 461.5 327 C 461.5 343 416.5 343 416.5 327 Z" fill="#000000" stroke="#000000" stroke-width="3" stroke-miterlimit="10" pointer-events="all"/><path d="M 416.5 291 C 416.5 303 461.5 303 461.5 291" fill="none" stroke="#000000" stroke-width="3" stroke-miterlimit="10" pointer-events="all"/><path d="M 434 374 C 434 368.67 444 368.67 444 374 L 444 386 C 444 391.33 434 391.33 434 386 Z" fill="#ffffff" stroke="#000000" stroke-miterlimit="10" pointer-events="all"/><path d="M 434 374 C 434 378 444 378 444 374" fill="none" stroke="#000000" stroke-miterlimit="10" pointer-events="all"/><path d="M 434 369 C 434 366.33 444 366.33 444 369 L 444 375 C 444 377.67 434 377.67 434 375 Z" fill="#000000" stroke="#000000" stroke-width="2" stroke-miterlimit="10" pointer-events="all"/><path d="M 434 369 C 434 371 444 371 444 369" fill="none" stroke="#000000" stroke-width="2" stroke-miterlimit="10" pointer-events="all"/><path d="M 3 93 L 81 3 L 315 3 L 393 93 Z" fill="#808080" stroke="#808080" stroke-width="7" stroke-miterlimit="10" pointer-events="all"/><path d="M 314.01 139.5 L 350.01 139.58 M 349.99 146.58 L 313.99 146.5 M 349.99 146.58" fill="none" stroke="#000000" stroke-width="4" stroke-linejoin="round" stroke-miterlimit="10" pointer-events="all"/><path d="M 395 139.58 L 431 139.58 M 431 146.58 L 395 146.58 M 431 146.58" fill="none" stroke="#000000" stroke-width="4" stroke-linejoin="round" stroke-miterlimit="10" pointer-events="all"/><ellipse cx="372.5" cy="143.5" rx="26.499999999999996" ry="26.499999999999996" fill="#afff8c" stroke="#000000" stroke-width="5" pointer-events="all"/><path d="M 373 162 L 373 133.97" fill="none" stroke="#000000" stroke-width="4" stroke-miterlimit="10" pointer-events="stroke"/><path d="M 373 126.47 L 378 136.47 L 373 133.97 L 368 136.47 Z" fill="#000000" stroke="#000000" stroke-width="4" stroke-miterlimit="10" pointer-events="all"/><path d="M 413 117 L 429 117" fill="none" stroke="#00cc00" stroke-width="4" stroke-miterlimit="10" pointer-events="stroke"/><path d="M 413 111 L 429 111" fill="none" stroke="#00cc00" stroke-width="4" stroke-miterlimit="10" pointer-events="stroke"/><path d="M 318 111 L 334 111" fill="none" stroke="#00cc00" stroke-width="4" stroke-miterlimit="10" pointer-events="stroke"/><path d="M 318 117 L 334 117" fill="none" stroke="#00cc00" stroke-width="4" stroke-miterlimit="10" pointer-events="stroke"/><ellipse cx="561" cy="255" rx="40" ry="40" fill="transparent" stroke="#4d4d4d" stroke-width="3" transform="rotate(270,561,255)" pointer-events="all"/><path d="M 541 220.6 L 597 237.4 M 541 289.4 L 597 272.6" fill="none" stroke="#4d4d4d" stroke-width="3" stroke-miterlimit="10" transform="rotate(270,561,255)" pointer-events="all"/><ellipse cx="573" cy="255" rx="12" ry="2.4000000000000004" fill="transparent" stroke="#4d4d4d" stroke-width="3" transform="rotate(270,561,255)" pointer-events="all"/><path d="M 554.82 244.24 C 559.13 249.27 561.8 254.05 560.8 254.92 C 560.32 255.34 559.03 254.78 557.23 253.36 C 555.42 251.94 553.25 249.78 551.18 247.36 C 546.87 242.33 544.2 237.55 545.2 236.68 C 545.68 236.26 546.97 236.82 548.77 238.24 C 550.58 239.66 552.75 241.82 554.82 244.24 Z M 551.16 262.78 C 553.21 260.35 555.37 258.17 557.17 256.74 C 558.96 255.31 560.24 254.74 560.73 255.15 C 561.22 255.56 560.87 256.92 559.77 258.93 C 558.67 260.94 556.89 263.44 554.84 265.88 C 552.79 268.32 550.63 270.49 548.83 271.92 C 547.04 273.36 545.76 273.93 545.27 273.51 C 544.78 273.11 545.13 271.75 546.23 269.73 C 547.33 267.72 549.11 265.22 551.16 262.78 Z" fill="none" stroke="#4d4d4d" stroke-width="3" stroke-miterlimit="10" transform="rotate(270,561,255)" pointer-events="all"/><ellipse cx="250" cy="255" rx="40" ry="40" fill="transparent" stroke="#4d4d4d" stroke-width="3" transform="rotate(270,250,255)" pointer-events="all"/><path d="M 230 220.6 L 286 237.4 M 230 289.4 L 286 272.6" fill="none" stroke="#4d4d4d" stroke-width="3" stroke-miterlimit="10" transform="rotate(270,250,255)" pointer-events="all"/><ellipse cx="262" cy="255" rx="12" ry="2.4000000000000004" fill="transparent" stroke="#4d4d4d" stroke-width="3" transform="rotate(270,250,255)" pointer-events="all"/><path d="M 243.82 244.24 C 248.13 249.27 250.8 254.05 249.8 254.92 C 249.32 255.34 248.03 254.78 246.23 253.36 C 244.42 251.94 242.25 249.78 240.18 247.36 C 235.87 242.33 233.2 237.55 234.2 236.68 C 234.68 236.26 235.97 236.82 237.77 238.24 C 239.58 239.66 241.75 241.82 243.82 244.24 Z M 240.16 262.78 C 242.21 260.35 244.37 258.17 246.17 256.74 C 247.96 255.31 249.24 254.74 249.73 255.15 C 250.22 255.56 249.87 256.92 248.77 258.93 C 247.67 260.94 245.89 263.44 243.84 265.88 C 241.79 268.32 239.63 270.49 237.83 271.92 C 236.04 273.36 234.76 273.93 234.27 273.51 C 233.78 273.11 234.13 271.75 235.23 269.73 C 236.33 267.72 238.11 265.22 240.16 262.78 Z" fill="none" stroke="#4d4d4d" stroke-width="3" stroke-miterlimit="10" transform="rotate(270,250,255)" pointer-events="all"/><path d="M 416.5 321 L 451.4 321" fill="none" stroke="#ff0000" stroke-width="3" stroke-miterlimit="10" stroke-dasharray="3 3" pointer-events="stroke"/><path d="M 458.15 321 L 449.15 325.5 L 451.4 321 L 449.15 316.5 Z" fill="#ff0000" stroke="#ff0000" stroke-width="3" stroke-miterlimit="10" pointer-events="all"/></g></svg>