<?xml version="1.0" encoding="UTF-8"?>
<!DOCTYPE svg PUBLIC "-//W3C//DTD SVG 1.1//EN" "http://www.w3.org/Graphics/SVG/1.1/DTD/svg11.dtd">
<svg xmlns="http://www.w3.org/2000/svg" xmlns:xlink="http://www.w3.org/1999/xlink" version="1.1" width="730px" height="557px" viewBox="-0.5 -0.5 730 557"><defs><linearGradient x1="0%" y1="0%" x2="0%" y2="100%" id="mx-gradient-none-0-none-0-s-0"><stop offset="0%" style="stop-color:none;stop-opacity:0"/><stop offset="100%" style="stop-color:none;stop-opacity:0"/></linearGradient><linearGradient x1="0%" y1="0%" x2="100%" y2="0%" id="mx-gradient-ffb624-1-0000ff-1-e-0"><stop offset="0%" style="stop-color:#FFB624"/><stop offset="100%" style="stop-color:#0000FF"/></linearGradient><linearGradient x1="100%" y1="0%" x2="0%" y2="0%" id="mx-gradient-ffb624-1-ff2e17-1-e-0"><stop offset="0%" style="stop-color:#FF2E17"/><stop offset="100%" style="stop-color:#FFB624"/></linearGradient></defs><g><rect x="24" y="93" width="611" height="460" fill="#ebf9ff" stroke="#808080" stroke-width="7" pointer-events="all"/><rect x="291.5" y="223" width="250" height="210" fill="#e6e6e6" stroke="#000000" stroke-width="5" pointer-events="all"/><rect x="69" y="223" width="220" height="210" fill="#e6e6e6" stroke="#000000" stroke-width="5" pointer-events="all"/><path d="M 3 93 L 135.8 3 L 534.2 3 L 667 93 Z" fill="#808080" stroke="#808080" stroke-width="7" stroke-miterlimit="10" pointer-events="all"/><path d="M 421.5 123 L 720 123 L 720 163 L 471.5 163 L 471.5 223 L 421.5 223 Z" fill="#ffd663" stroke="#000000" stroke-width="3" stroke-miterlimit="10" pointer-events="all"/><path d="M 421.5 433 L 721 433 L 721 473 L 471.5 473 L 471.5 533 L 421.5 533 Z" fill="#ff7857" stroke="#000000" stroke-width="3" stroke-miterlimit="10" transform="translate(0,483)scale(1,-1)translate(0,-483)" pointer-events="all"/><path d="M 422.5 221 L 469.5 221 L 469.5 231 L 422.5 231 L 422.5 221 Z" fill="#e6e6e6" stroke="none" pointer-events="all"/><path d="M 422.5 221 L 422.5 231 L 422.5 231 L 469.5 231 L 469.5 221 L 422.5 221" fill="url(#mx-gradient-none-0-none-0-s-0)" stroke="none" pointer-events="all"/><path d="M 422.5 221 L 469.5 221 L 469.5 231 L 422.5 231 L 422.5 221 Z" fill="none" stroke="none" pointer-events="all"/><path d="M 422.5 426 L 469.5 426 L 469.5 436 L 422.5 436 L 422.5 426 Z" fill="#e6e6e6" stroke="none" pointer-events="all"/><path d="M 422.5 426 L 422.5 436 L 422.5 436 L 469.5 436 L 469.5 426 L 422.5 426" fill="url(#mx-gradient-none-0-none-0-s-0)" stroke="none" pointer-events="all"/><path d="M 422.5 426 L 469.5 426 L 469.5 436 L 422.5 436 L 422.5 426 Z" fill="none" stroke="none" pointer-events="all"/><path d="M 159.5 220 L 206.5 220 L 206.5 227 L 159.5 227 L 159.5 220 Z" fill="#e6e6e6" stroke="none" pointer-events="all"/><path d="M 159.5 220 L 159.5 227 L 159.5 227 L 206.5 227 L 206.5 220 L 159.5 220" fill="url(#mx-gradient-none-0-none-0-s-0)" stroke="none" pointer-events="all"/><path d="M 159.5 220 L 206.5 220 L 206.5 227 L 159.5 227 L 159.5 220 Z" fill="none" stroke="none" pointer-events="all"/><path d="M 159.5 429 L 206.5 429 L 206.5 436 L 159.5 436 L 159.5 429 Z" fill="#e6e6e6" stroke="none" pointer-events="all"/><path d="M 159.5 429 L 159.5 436 L 159.5 436 L 206.5 436 L 206.5 429 L 159.5 429" fill="url(#mx-gradient-none-0-none-0-s-0)" stroke="none" pointer-events="all"/><path d="M 159.5 429 L 206.5 429 L 206.5 436 L 159.5 436 L 159.5 429 Z" fill="none" stroke="none" pointer-events="all"/><path d="M 19 297 L 44 297 L 59.43 320.14 L 314.03 320.14 L 314.03 300.14 L 347 327 L 314.03 353.86 L 314.03 333.86 L 59.43 333.86 L 44 357 L 19 357 L 39 327 Z" fill="url(#mx-gradient-ffb624-1-0000ff-1-e-0)" stroke="none" transform="rotate(90,183,327)" pointer-events="all"/><path d="M 283 297 L 308 297 L 323.43 320.14 L 578.03 320.14 L 578.03 300.14 L 611 327 L 578.03 353.86 L 578.03 333.86 L 323.43 333.86 L 308 357 L 283 357 L 303 327 Z" fill="url(#mx-gradient-ffb624-1-ff2e17-1-e-0)" stroke="none" transform="rotate(90,447,327)" pointer-events="all"/><path d="M 331.5 354 L 501.5 354 Q 511.5 354 516.5 359 L 519 361.5 Q 521.5 364 516.5 369 L 514 371.5 Q 511.5 374 501.5 374 L 371.5 374 Q 361.5 374 356.5 379 L 354 381.5 Q 351.5 384 356.5 389 L 359 391.5 Q 361.5 394 371.5 394 L 501.5 394 Q 511.5 394 516.5 399 L 519 401.5 Q 521.5 404 516.5 409 L 514 411.5 Q 511.5 414 501.5 414 L 321.5 414" fill="none" stroke="#ff0000" stroke-width="5" stroke-miterlimit="10" pointer-events="stroke"/><path d="M 319.5 407 C 319.5 401.67 329.5 401.67 329.5 407 L 329.5 419 C 329.5 424.33 319.5 424.33 319.5 419 Z" fill="#ffffff" stroke="#000000" stroke-miterlimit="10" pointer-events="all"/><path d="M 319.5 407 C 319.5 411 329.5 411 329.5 407" fill="none" stroke="#000000" stroke-miterlimit="10" pointer-events="all"/><path d="M 319.5 402 C 319.5 399.33 329.5 399.33 329.5 402 L 329.5 408 C 329.5 410.67 319.5 410.67 319.5 408 Z" fill="#000000" stroke="#000000" stroke-width="2" stroke-miterlimit="10" pointer-events="all"/><path d="M 319.5 402 C 319.5 404 329.5 404 329.5 402" fill="none" stroke="#000000" stroke-width="2" stroke-miterlimit="10" pointer-events="all"/><path d="M 704.5 507.5 L 741.5 507.5 L 741.5 517.5 L 704.5 517.5 L 704.5 507.5 Z" fill="#ffffff" stroke="none" transform="rotate(90,723,512.5)" pointer-events="all"/><path d="M 704.5 507.5 L 704.5 517.5 L 704.5 517.5 L 741.5 517.5 L 741.5 507.5 L 704.5 507.5" fill="url(#mx-gradient-none-0-none-0-s-0)" stroke="none" transform="rotate(90,723,512.5)" pointer-events="all"/><path d="M 704.5 507.5 L 741.5 507.5 L 741.5 517.5 L 704.5 517.5 L 704.5 507.5 Z" fill="none" stroke="none" transform="rotate(90,723,512.5)" pointer-events="all"/><path d="M 703.5 137.5 L 740.5 137.5 L 740.5 147.5 L 703.5 147.5 L 703.5 137.5 Z" fill="#ffffff" stroke="none" transform="rotate(90,722,142.5)" pointer-events="all"/><path d="M 703.5 137.5 L 703.5 147.5 L 703.5 147.5 L 740.5 147.5 L 740.5 137.5 L 703.5 137.5" fill="url(#mx-gradient-none-0-none-0-s-0)" stroke="none" transform="rotate(90,722,142.5)" pointer-events="all"/><path d="M 703.5 137.5 L 740.5 137.5 L 740.5 147.5 L 703.5 147.5 L 703.5 137.5 Z" fill="none" stroke="none" transform="rotate(90,722,142.5)" pointer-events="all"/><path d="M 319 414 L 103 414 Q 93 414 88 409 L 85.5 406.5 Q 83 404 88 399 L 90.5 396.5 Q 93 394 103 394 L 233 394 Q 243 394 248 389 L 250.5 386.5 Q 253 384 248 379 L 245.5 376.5 Q 243 374 233 374 L 103 374 Q 93 374 88 369 L 85.5 366.5 Q 83 364 88 359 L 90.5 356.5 Q 93 354 103 354 L 343 354" fill="none" stroke="#0000ff" stroke-width="5" stroke-miterlimit="10" pointer-events="stroke"/><path d="M 302 324 C 302 308 347 308 347 324 L 347 360 C 347 376 302 376 302 360 Z" fill="#000000" stroke="#000000" stroke-width="3" stroke-miterlimit="10" pointer-events="all"/><path d="M 302 324 C 302 336 347 336 347 324" fill="none" stroke="#000000" stroke-width="3" stroke-miterlimit="10" pointer-events="all"/><path d="M 598 512.08 L 672.03 512.08" fill="none" stroke="#ff0303" stroke-width="4" stroke-miterlimit="10" pointer-events="stroke"/><path d="M 679.53 512.08 L 669.53 517.08 L 672.03 512.08 L 669.53 507.08 Z" fill="#ff0303" stroke="#ff0303" stroke-width="4" stroke-miterlimit="10" pointer-events="all"/><path d="M 678.5 141.67 L 604.47 141.67" fill="none" stroke="#ffbc05" stroke-width="4" stroke-miterlimit="10" pointer-events="stroke"/><path d="M 596.97 141.67 L 606.97 136.67 L 604.47 141.67 L 606.97 146.67 Z" fill="#ffbc05" stroke="#ffbc05" stroke-width="4" stroke-miterlimit="10" pointer-events="all"/><path d="M 575.01 303.5 L 611.01 303.58 M 610.99 310.58 L 574.99 310.5 M 610.99 310.58" fill="none" stroke="#000000" stroke-width="4" stroke-linejoin="round" stroke-miterlimit="10" pointer-events="all"/><path d="M 656 303.58 L 692 303.58 M 692 310.58 L 656 310.58 M 692 310.58" fill="none" stroke="#000000" stroke-width="4" stroke-linejoin="round" stroke-miterlimit="10" pointer-events="all"/><ellipse cx="633.5" cy="307.5" rx="26.499999999999996" ry="26.499999999999996" fill="#afff8c" stroke="#000000" stroke-width="5" pointer-events="all"/><path d="M 634 326 L 634 297.97" fill="none" stroke="#000000" stroke-width="4" stroke-miterlimit="10" pointer-events="stroke"/><path d="M 634 290.47 L 639 300.47 L 634 297.97 L 629 300.47 Z" fill="#000000" stroke="#000000" stroke-width="4" stroke-miterlimit="10" pointer-events="all"/><path d="M 674 281 L 690 281" fill="none" stroke="#00cc00" stroke-width="4" stroke-miterlimit="10" pointer-events="stroke"/><path d="M 674 275 L 690 275" fill="none" stroke="#00cc00" stroke-width="4" stroke-miterlimit="10" pointer-events="stroke"/><path d="M 579 275 L 595 275" fill="none" stroke="#00cc00" stroke-width="4" stroke-miterlimit="10" pointer-events="stroke"/><path d="M 579 281 L 595 281" fill="none" stroke="#00cc00" stroke-width="4" stroke-miterlimit="10" pointer-events="stroke"/><ellipse cx="446" cy="294" rx="40" ry="40" fill="transparent" stroke="#4d4d4d" stroke-width="3" transform="rotate(270,446,294)" pointer-events="all"/><path d="M 426 259.6 L 482 276.4 M 426 328.4 L 482 311.6" fill="none" stroke="#4d4d4d" stroke-width="3" stroke-miterlimit="10" transform="rotate(270,446,294)" pointer-events="all"/><ellipse cx="458" cy="294" rx="12" ry="2.4000000000000004" fill="transparent" stroke="#4d4d4d" stroke-width="3" transform="rotate(270,446,294)" pointer-events="all"/><path d="M 439.82 283.24 C 444.13 288.27 446.8 293.05 445.8 293.92 C 445.32 294.34 444.03 293.78 442.23 292.36 C 440.42 290.94 438.25 288.78 436.18 286.36 C 431.87 281.33 429.2 276.55 430.2 275.68 C 430.68 275.26 431.97 275.82 433.77 277.24 C 435.58 278.66 437.75 280.82 439.82 283.24 Z M 436.16 301.78 C 438.21 299.35 440.37 297.17 442.17 295.74 C 443.96 294.31 445.24 293.74 445.73 294.15 C 446.22 294.56 445.87 295.92 444.77 297.93 C 443.67 299.94 441.89 302.44 439.84 304.88 C 437.79 307.32 435.63 309.49 433.83 310.92 C 432.04 312.36 430.76 312.93 430.27 312.51 C 429.78 312.11 430.13 310.75 431.23 308.73 C 432.33 306.72 434.11 304.22 436.16 301.78 Z" fill="none" stroke="#4d4d4d" stroke-width="3" stroke-miterlimit="10" transform="rotate(270,446,294)" pointer-events="all"/><ellipse cx="182" cy="294" rx="40" ry="40" fill="transparent" stroke="#4d4d4d" stroke-width="3" transform="rotate(270,182,294)" pointer-events="all"/><path d="M 162 259.6 L 218 276.4 M 162 328.4 L 218 311.6" fill="none" stroke="#4d4d4d" stroke-width="3" stroke-miterlimit="10" transform="rotate(270,182,294)" pointer-events="all"/><ellipse cx="194" cy="294" rx="12" ry="2.4000000000000004" fill="transparent" stroke="#4d4d4d" stroke-width="3" transform="rotate(270,182,294)" pointer-events="all"/><path d="M 175.82 283.24 C 180.13 288.27 182.8 293.05 181.8 293.92 C 181.32 294.34 180.03 293.78 178.23 292.36 C 176.42 290.94 174.25 288.78 172.18 286.36 C 167.87 281.33 165.2 276.55 166.2 275.68 C 166.68 275.26 167.97 275.82 169.77 277.24 C 171.58 278.66 173.75 280.82 175.82 283.24 Z M 172.16 301.78 C 174.21 299.35 176.37 297.17 178.17 295.74 C 179.96 294.31 181.24 293.74 181.73 294.15 C 182.22 294.56 181.87 295.92 180.77 297.93 C 179.67 299.94 177.89 302.44 175.84 304.88 C 173.79 307.32 171.63 309.49 169.83 310.92 C 168.04 312.36 166.76 312.93 166.27 312.51 C 165.78 312.11 166.13 310.75 167.23 308.73 C 168.33 306.72 170.11 304.22 172.16 301.78 Z" fill="none" stroke="#4d4d4d" stroke-width="3" stroke-miterlimit="10" transform="rotate(270,182,294)" pointer-events="all"/><path d="M 302 354 L 336.9 354" fill="none" stroke="#ff0000" stroke-width="3" stroke-miterlimit="10" stroke-dasharray="3 3" pointer-events="stroke"/><path d="M 343.65 354 L 334.65 358.5 L 336.9 354 L 334.65 349.5 Z" fill="#ff0000" stroke="#ff0000" stroke-width="3" stroke-miterlimit="10" pointer-events="all"/></g></svg>