<?xml version="1.0" encoding="UTF-8"?>
<!DOCTYPE svg PUBLIC "-//W3C//DTD SVG 1.1//EN" "http://www.w3.org/Graphics/SVG/1.1/DTD/svg11.dtd">
<svg xmlns="http://www.w3.org/2000/svg" xmlns:xlink="http://www.w3.org/1999/xlink" version="1.1" width="797px" height="557px" viewBox="-0.5 -0.5 797 557"><defs><linearGradient x1="0%" y1="0%" x2="0%" y2="100%" id="mx-gradient-none-0-none-0-s-0"><stop offset="0%" style="stop-color:none;stop-opacity:0"/><stop offset="100%" style="stop-color:none;stop-opacity:0"/></linearGradient><linearGradient x1="0%" y1="0%" x2="100%" y2="0%" id="mx-gradient-ffb624-1-0000ff-1-e-0"><stop offset="0%" style="stop-color:#FFB624"/><stop offset="100%" style="stop-color:#0000FF"/></linearGradient><linearGradient x1="100%" y1="0%" x2="0%" y2="0%" id="mx-gradient-ffb624-1-ff2e17-1-e-0"><stop offset="0%" style="stop-color:#FF2E17"/><stop offset="100%" style="stop-color:#FFB624"/></linearGradient></defs><g><rect x="92" y="93" width="611" height="460" fill="#ffedbd" stroke="#808080" stroke-width="7" pointer-events="all"/><path d="M 620 312 L 645 312 L 656.42 321.14 L 757.03 321.14 L 757.03 305.14 L 790 328 L 757.03 350.86 L 757.03 334.86 L 656.42 334.86 L 645 344 L 620 344 L 640 328 Z" fill="#ffd663" stroke="none" transform="rotate(-180,705,328)" pointer-events="all"/><rect x="359.5" y="223" width="250" height="210" fill="#e6e6e6" stroke="#000000" stroke-width="5" pointer-events="all"/><rect x="137" y="223" width="220" height="210" fill="#e6e6e6" stroke="#000000" stroke-width="5" pointer-events="all"/><path d="M 71 93 L 203.8 3 L 602.2 3 L 735 93 Z" fill="#808080" stroke="#808080" stroke-width="7" stroke-miterlimit="10" pointer-events="all"/><path d="M 489.5 433 L 789 433 L 789 473 L 539.5 473 L 539.5 533 L 489.5 533 Z" fill="#ff7857" stroke="#000000" stroke-width="3" stroke-miterlimit="10" transform="translate(0,483)scale(1,-1)translate(0,-483)" pointer-events="all"/><path d="M 490.5 220 L 537.5 220 L 537.5 230 L 490.5 230 L 490.5 220 Z" fill="#e6e6e6" stroke="none" pointer-events="all"/><path d="M 490.5 220 L 490.5 230 L 490.5 230 L 537.5 230 L 537.5 220 L 490.5 220" fill="url(#mx-gradient-none-0-none-0-s-0)" stroke="none" pointer-events="all"/><path d="M 490.5 220 L 537.5 220 L 537.5 230 L 490.5 230 L 490.5 220 Z" fill="none" stroke="none" pointer-events="all"/><path d="M 490.5 426 L 537.5 426 L 537.5 436 L 490.5 436 L 490.5 426 Z" fill="#e6e6e6" stroke="none" pointer-events="all"/><path d="M 490.5 426 L 490.5 436 L 490.5 436 L 537.5 436 L 537.5 426 L 490.5 426" fill="url(#mx-gradient-none-0-none-0-s-0)" stroke="none" pointer-events="all"/><path d="M 490.5 426 L 537.5 426 L 537.5 436 L 490.5 436 L 490.5 426 Z" fill="none" stroke="none" pointer-events="all"/><path d="M 227.5 220 L 274.5 220 L 274.5 227 L 227.5 227 L 227.5 220 Z" fill="#e6e6e6" stroke="none" pointer-events="all"/><path d="M 227.5 220 L 227.5 227 L 227.5 227 L 274.5 227 L 274.5 220 L 227.5 220" fill="url(#mx-gradient-none-0-none-0-s-0)" stroke="none" pointer-events="all"/><path d="M 227.5 220 L 274.5 220 L 274.5 227 L 227.5 227 L 227.5 220 Z" fill="none" stroke="none" pointer-events="all"/><path d="M 227.5 429 L 274.5 429 L 274.5 436 L 227.5 436 L 227.5 429 Z" fill="#e6e6e6" stroke="none" pointer-events="all"/><path d="M 227.5 429 L 227.5 436 L 227.5 436 L 274.5 436 L 274.5 429 L 227.5 429" fill="url(#mx-gradient-none-0-none-0-s-0)" stroke="none" pointer-events="all"/><path d="M 227.5 429 L 274.5 429 L 274.5 436 L 227.5 436 L 227.5 429 Z" fill="none" stroke="none" pointer-events="all"/><path d="M 87 297 L 112 297 L 127.43 320.14 L 382.03 320.14 L 382.03 300.14 L 415 327 L 382.03 353.86 L 382.03 333.86 L 127.43 333.86 L 112 357 L 87 357 L 107 327 Z" fill="url(#mx-gradient-ffb624-1-0000ff-1-e-0)" stroke="none" transform="rotate(90,251,327)" pointer-events="all"/><path d="M 351 297 L 376 297 L 391.43 320.14 L 646.03 320.14 L 646.03 300.14 L 679 327 L 646.03 353.86 L 646.03 333.86 L 391.43 333.86 L 376 357 L 351 357 L 371 327 Z" fill="url(#mx-gradient-ffb624-1-ff2e17-1-e-0)" stroke="none" transform="rotate(90,515,327)" pointer-events="all"/><path d="M 399.5 354 L 569.5 354 Q 579.5 354 584.5 359 L 587 361.5 Q 589.5 364 584.5 369 L 582 371.5 Q 579.5 374 569.5 374 L 439.5 374 Q 429.5 374 424.5 379 L 422 381.5 Q 419.5 384 424.5 389 L 427 391.5 Q 429.5 394 439.5 394 L 569.5 394 Q 579.5 394 584.5 399 L 587 401.5 Q 589.5 404 584.5 409 L 582 411.5 Q 579.5 414 569.5 414 L 389.5 414" fill="none" stroke="#ff0000" stroke-width="5" stroke-miterlimit="10" pointer-events="stroke"/><path d="M 387.5 407 C 387.5 401.67 397.5 401.67 397.5 407 L 397.5 419 C 397.5 424.33 387.5 424.33 387.5 419 Z" fill="#ffffff" stroke="#000000" stroke-miterlimit="10" pointer-events="all"/><path d="M 387.5 407 C 387.5 411 397.5 411 397.5 407" fill="none" stroke="#000000" stroke-miterlimit="10" pointer-events="all"/><path d="M 387.5 402 C 387.5 399.33 397.5 399.33 397.5 402 L 397.5 408 C 397.5 410.67 387.5 410.67 387.5 408 Z" fill="#000000" stroke="#000000" stroke-width="2" stroke-miterlimit="10" pointer-events="all"/><path d="M 387.5 402 C 387.5 404 397.5 404 397.5 402" fill="none" stroke="#000000" stroke-width="2" stroke-miterlimit="10" pointer-events="all"/><path d="M 772.5 507.5 L 809.5 507.5 L 809.5 517.5 L 772.5 517.5 L 772.5 507.5 Z" fill="#ffffff" stroke="none" transform="rotate(90,791,512.5)" pointer-events="all"/><path d="M 772.5 507.5 L 772.5 517.5 L 772.5 517.5 L 809.5 517.5 L 809.5 507.5 L 772.5 507.5" fill="url(#mx-gradient-none-0-none-0-s-0)" stroke="none" transform="rotate(90,791,512.5)" pointer-events="all"/><path d="M 772.5 507.5 L 809.5 507.5 L 809.5 517.5 L 772.5 517.5 L 772.5 507.5 Z" fill="none" stroke="none" transform="rotate(90,791,512.5)" pointer-events="all"/><path d="M 387 414 L 171 414 Q 161 414 156 409 L 153.5 406.5 Q 151 404 156 399 L 158.5 396.5 Q 161 394 171 394 L 301 394 Q 311 394 316 389 L 318.5 386.5 Q 321 384 316 379 L 313.5 376.5 Q 311 374 301 374 L 171 374 Q 161 374 156 369 L 153.5 366.5 Q 151 364 156 359 L 158.5 356.5 Q 161 354 171 354 L 411 354" fill="none" stroke="#0000ff" stroke-width="5" stroke-miterlimit="10" pointer-events="stroke"/><path d="M 370 324 C 370 308 415 308 415 324 L 415 360 C 415 376 370 376 370 360 Z" fill="#000000" stroke="#000000" stroke-width="3" stroke-miterlimit="10" pointer-events="all"/><path d="M 370 324 C 370 336 415 336 415 324" fill="none" stroke="#000000" stroke-width="3" stroke-miterlimit="10" pointer-events="all"/><path d="M 644.01 324.5 L 680.01 324.58 M 679.99 331.58 L 643.99 331.5 M 679.99 331.58" fill="none" stroke="#000000" stroke-width="4" stroke-linejoin="round" stroke-miterlimit="10" pointer-events="all"/><path d="M 725 324.58 L 761 324.58 M 761 331.58 L 725 331.58 M 761 331.58" fill="none" stroke="#000000" stroke-width="4" stroke-linejoin="round" stroke-miterlimit="10" pointer-events="all"/><ellipse cx="702.5" cy="328.5" rx="26.499999999999996" ry="26.499999999999996" fill="#ff6666" stroke="#000000" stroke-width="5" pointer-events="all"/><path d="M 723 328 L 692.97 328.72" fill="none" stroke="#000000" stroke-width="4" stroke-miterlimit="10" pointer-events="stroke"/><path d="M 685.47 328.89 L 695.35 323.66 L 692.97 328.72 L 695.59 333.65 Z" fill="#000000" stroke="#000000" stroke-width="4" stroke-miterlimit="10" pointer-events="all"/><path d="M 1 146 L 26 146 L 37.42 155.14 L 111.03 155.14 L 111.03 139.14 L 144 162 L 111.03 184.86 L 111.03 168.86 L 37.42 168.86 L 26 178 L 1 178 L 21 162 Z" fill="#ffd663" stroke="none" pointer-events="all"/><path d="M 1 483 L 26 483 L 37.42 492.14 L 111.03 492.14 L 111.03 476.14 L 144 499 L 111.03 521.86 L 111.03 505.86 L 37.42 505.86 L 26 515 L 1 515 L 21 499 Z" fill="#ffd663" stroke="none" pointer-events="all"/><path d="M 659.5 512.08 L 733.53 512.08" fill="none" stroke="#ff0303" stroke-width="4" stroke-miterlimit="10" pointer-events="stroke"/><path d="M 741.03 512.08 L 731.03 517.08 L 733.53 512.08 L 731.03 507.08 Z" fill="#ff0303" stroke="#ff0303" stroke-width="4" stroke-miterlimit="10" pointer-events="all"/><path d="M 647 301.52 L 663 301.52" fill="none" stroke="#cc0000" stroke-width="4" stroke-miterlimit="10" pointer-events="stroke"/><path d="M 743 302 L 759 302" fill="none" stroke="#cc0000" stroke-width="4" stroke-miterlimit="10" pointer-events="stroke"/><path d="M 751 310 L 751 294" fill="none" stroke="#cc0000" stroke-width="4" stroke-miterlimit="10" pointer-events="stroke"/><ellipse cx="251" cy="293" rx="40" ry="40" fill="transparent" stroke="#4d4d4d" stroke-width="3" transform="rotate(270,251,293)" pointer-events="all"/><path d="M 231 258.6 L 287 275.4 M 231 327.4 L 287 310.6" fill="none" stroke="#4d4d4d" stroke-width="3" stroke-miterlimit="10" transform="rotate(270,251,293)" pointer-events="all"/><ellipse cx="263" cy="293" rx="12" ry="2.4000000000000004" fill="transparent" stroke="#4d4d4d" stroke-width="3" transform="rotate(270,251,293)" pointer-events="all"/><path d="M 244.82 282.24 C 249.13 287.27 251.8 292.05 250.8 292.92 C 250.32 293.34 249.03 292.78 247.23 291.36 C 245.42 289.94 243.25 287.78 241.18 285.36 C 236.87 280.33 234.2 275.55 235.2 274.68 C 235.68 274.26 236.97 274.82 238.77 276.24 C 240.58 277.66 242.75 279.82 244.82 282.24 Z M 241.16 300.78 C 243.21 298.35 245.37 296.17 247.17 294.74 C 248.96 293.31 250.24 292.74 250.73 293.15 C 251.22 293.56 250.87 294.92 249.77 296.93 C 248.67 298.94 246.89 301.44 244.84 303.88 C 242.79 306.32 240.63 308.49 238.83 309.92 C 237.04 311.36 235.76 311.93 235.27 311.51 C 234.78 311.11 235.13 309.75 236.23 307.73 C 237.33 305.72 239.11 303.22 241.16 300.78 Z" fill="none" stroke="#4d4d4d" stroke-width="3" stroke-miterlimit="10" transform="rotate(270,251,293)" pointer-events="all"/><ellipse cx="516" cy="293" rx="40" ry="40" fill="transparent" stroke="#4d4d4d" stroke-width="3" transform="rotate(270,516,293)" pointer-events="all"/><path d="M 496 258.6 L 552 275.4 M 496 327.4 L 552 310.6" fill="none" stroke="#4d4d4d" stroke-width="3" stroke-miterlimit="10" transform="rotate(270,516,293)" pointer-events="all"/><ellipse cx="528" cy="293" rx="12" ry="2.4000000000000004" fill="transparent" stroke="#4d4d4d" stroke-width="3" transform="rotate(270,516,293)" pointer-events="all"/><path d="M 509.82 282.24 C 514.13 287.27 516.8 292.05 515.8 292.92 C 515.32 293.34 514.03 292.78 512.23 291.36 C 510.42 289.94 508.25 287.78 506.18 285.36 C 501.87 280.33 499.2 275.55 500.2 274.68 C 500.68 274.26 501.97 274.82 503.77 276.24 C 505.58 277.66 507.75 279.82 509.82 282.24 Z M 506.16 300.78 C 508.21 298.35 510.37 296.17 512.17 294.74 C 513.96 293.31 515.24 292.74 515.73 293.15 C 516.22 293.56 515.87 294.92 514.77 296.93 C 513.67 298.94 511.89 301.44 509.84 303.88 C 507.79 306.32 505.63 308.49 503.83 309.92 C 502.04 311.36 500.76 311.93 500.27 311.51 C 499.78 311.11 500.13 309.75 501.23 307.73 C 502.33 305.72 504.11 303.22 506.16 300.78 Z" fill="none" stroke="#4d4d4d" stroke-width="3" stroke-miterlimit="10" transform="rotate(270,516,293)" pointer-events="all"/><path d="M 370 354 L 404.9 354" fill="none" stroke="#ff0000" stroke-width="3" stroke-miterlimit="10" stroke-dasharray="3 3" pointer-events="stroke"/><path d="M 411.65 354 L 402.65 358.5 L 404.9 354 L 402.65 349.5 Z" fill="#ff0000" stroke="#ff0000" stroke-width="3" stroke-miterlimit="10" pointer-events="all"/></g></svg>