<?xml version="1.0" encoding="UTF-8"?>
<svg width="247.89mm" height="247.89mm" version="1.1" viewBox="0 0 247.89 247.89" xmlns="http://www.w3.org/2000/svg" xmlns:cc="http://creativecommons.org/ns#" xmlns:dc="http://purl.org/dc/elements/1.1/" xmlns:osb="http://www.openswatchbook.org/uri/2009/osb" xmlns:rdf="http://www.w3.org/1999/02/22-rdf-syntax-ns#">
 <metadata>
  <rdf:RDF>
   <cc:Work rdf:about="">
    <dc:format>image/svg+xml</dc:format>
    <dc:type rdf:resource="http://purl.org/dc/dcmitype/StillImage"/>
    <dc:title/>
   </cc:Work>
  </rdf:RDF>
 </metadata>
 <g transform="translate(-24.013 -25.892)">
  <rect x="34.948" y="36.828" width="226.02" height="226.02" fill="none" stroke="#d4b715" stroke-linecap="round" stroke-width="21.871"/>
 </g>
 <g transform="translate(-24.013 -22.892)">
  <g transform="matrix(.76733 .28126 -.14963 .87862 133.81 -471.08)" fill="#d4b715" aria-label="w">
   <path d="m17.763 736.54q-11.2-22.4-5.6-70.4 2.4-19.2 4.8-36.8 3.2-18.4 2.4-32-6.4-1.6-9.6-8.8-3.2-8 0.8-14.4 4-7.2 6.4-11.2 16-11.2 27.2 3.2 8.8 12.8 6.4 45.6-1.6 32.8-4.8 49.6-2.4 16.8-3.2 26.4 6.4-12 12.8-27.2 5.6-16 13.6-31.2 18.4-36 43.2-43.2 14.4-0.8 19.2 13.6 3.2 12 0.8 50.4-2.4 37.6-3.2 54.4 0 16.8 4 20.8 32-8.8 72-61.6 39.2-50.4 49.6-84.8 7.2-13.6 19.2-9.6 12.8 4 11.2 18.4-23.2 72.8-100.8 142.4-26.4 21.6-38.4 24.8-26.4 8-42.4-13.6-10.4-16-3.2-78.4 1.6-14.4 2.4-23.2-5.6 12-12 26.4-5.6 14.4-12 28-16 32-36.8 45.6-12.8 7.2-24-3.2z" fill="#d4b715" stroke-width=".94526"/>
  </g>
 </g>
</svg>
