<svg version="1" xmlns="http://www.w3.org/2000/svg" width="933.333" height="933.333" viewBox="0 0 700.000000 700.000000"><path d="M0 350v350h700V0H0v350zM81.4 62.2c.2.1.6 3.2.9 6.8 1.2 12.1 4.9 20.8 12.5 29.1l4.8 5.2-1.7 10.1c-3.5 20.3-6.8 33.9-13.4 55.1-7.1 22.7-10.8 35.2-18.7 62.7-1.7 6-3.3 10.6-3.6 10.3-.4-.3-.6-165.1-.3-176.7.1-2 .7-2.7 2.4-3 2.8-.4 16.7-.1 17.1.4zm556.2.1c.5.5.9 147.3.5 162.8-.1 2.1-1 3-5.1 4.8-7.4 3.3-14.8 11.4-20.5 22.3-4.5 8.7-9.2 16.7-15.4 26.3-3 4.8-19.3 27.8-20.1 28.5-.3.3-4.1 5-8.5 10.5-20.3 25.6-57 63.5-85.9 89-.7.5-3.6 3.2-6.7 6-7.3 6.7-12 10.8-20.4 18-3.8 3.3-7.5 6.4-8.1 7-3 2.7-26.5 20.8-33.9 26.1-16.6 11.9-45.2 28.1-61 34.5-6.7 2.7-21.8 7.8-25 8.3-1.6.3-4.5 1-6.3 1.5-1.8.5-3.6 1-4 1-.4 0-3.5.3-7 .7-11.2 1.2-17.4 1.1-18.8-.3-3.6-3.6-3.8-25.3-.4-48.8.7-4.4 1.4-8.3 1.6-8.7.2-.3.9-2.8 1.4-5.5 1.1-5.6 1.2-6.1 3.9-17.3 1.1-4.7 2.2-9.7 2.5-11 1-5.6 3.6-17.1 6-27.3 1.4-5.9 2.8-11.8 3-13 .5-2.4 8.9-39.8 11.1-49.2 1.5-6.5 7.4-33.5 8.1-37.5.3-1.4.9-4.1 1.4-6 .8-3.1 1.6-7.6 2.5-13.5.2-1.1 1.1-6.1 2-11 .9-5 1.8-9.7 2-10.5.2-.8.6-3.6.9-6.3 1.5-11.3 1.7-13.3 2-15.2 1.6-9.5 2.3-28 1.2-35-3-20.1-12.3-34.3-27.3-41.7-6-2.9-7.6-3.3-14.1-3.1-11.4.3-21.6 2.8-33 7.9-2.9 1.3-5.5 2.4-5.7 2.4-1.8 0-23.6 15.3-28.5 19.9-.9.9-4.3 4.1-7.6 7.1-20.6 19.3-44.5 51.6-67.8 91.9-4.2 7.1-11 18.3-15.2 24.8-8.1 12.4-28.6 41.4-29 41-.3-.3 6.6-26 10.5-38.7 1.8-5.8 6.2-20 9.7-31.5 3.6-11.6 7.2-23.3 8.1-26 1.7-5.6 11.5-44.5 14.3-57 1-4.4 3.2-14.5 4.9-22.5 1.7-8 3.5-16.1 4.1-18 .5-1.9 1.8-9.1 3-16s2.3-13.6 2.6-15c1.3-7.9 1.9-18.8 1.9-36.7 0-16.9.2-20.3 1.4-20.5 3-.6 464.2-.1 464.7.5zM256.4 294.1c-2.5 9.6-7.4 28-10.9 40.9-5.7 20.9-11.1 41.7-12 46-.2.8-1.4 6.4-2.8 12.5-2.2 9.4-3.6 16.4-6.2 29.5-2.1 10.7-5.1 30.3-6 39-.3 3-.8 7.7-1 10.5-.9 7.9-.9 30.4-.1 37.3 1.5 13 5.6 24.1 14.5 39.2 14.6 25 35.5 39.9 61.6 43.7 6.3 1 22.7 1 28.2.1 25.2-4.2 67.3-22.4 105.8-45.7 14.3-8.7 43.6-27.6 47-30.4.6-.4 5.5-4 11-7.9 23.1-16.4 53.6-41.4 72.1-58.9 16.3-15.5 39.8-39.9 45.9-47.7 1.1-1.4 2.9-3.4 4-4.6 4.8-5 25.1-31.2 28.4-36.6l2.1-3.5.1 3.5c0 1.9.1 65 .2 140.2.2 136.2.2 136.8-1.8 136.9-1.1 0-130.8.1-288.2.2l-286.3.2-.1-2.5c-.3-9.5-.1-163.1.2-163.4.2-.3 2.9.2 5.9 1 7.6 2.1 16.8 1.2 26-2.4 27.1-10.8 53.6-32.3 81.5-66.3 8.1-9.9 25.6-36 39.5-58.9 5.1-8.5 14.8-23.6 21.4-33.5 6.7-9.9 12.3-18.5 12.6-19 1.5-2.9 11.3-17.5 11.7-17.2.2.2-1.7 8.2-4.3 17.8z"/></svg>